<?xml version="1.0" encoding="UTF-8" standalone="no"?>
<!DOCTYPE svg PUBLIC "-//W3C//DTD SVG 1.1//EN"
 "http://www.w3.org/Graphics/SVG/1.1/DTD/svg11.dtd">
<!-- Generated by graphviz version 2.36.0 (20140111.2315)
 -->
<!-- Title: controllers_diagram Pages: 1 -->
<svg width="705pt" height="712pt"
 viewBox="0.00 0.00 705.00 712.00" xmlns="http://www.w3.org/2000/svg" xmlns:xlink="http://www.w3.org/1999/xlink">
<g id="graph0" class="graph" transform="scale(1 1) rotate(0) translate(4 708)">
<title>controllers_diagram</title>
<polygon fill="none" stroke="none" points="-4,4 -4,-708 701,-708 701,4 -4,4"/>
<!-- _diagram_info -->
<g id="node1" class="node"><title>_diagram_info</title>
<text text-anchor="start" x="178" y="-539.6" font-family="Times,serif" font-size="13.00">Controllers diagram</text>
<text text-anchor="start" x="178" y="-525.6" font-family="Times,serif" font-size="13.00">Date: Nov 19 2016 &#45; 17:21</text>
<text text-anchor="start" x="178" y="-511.6" font-family="Times,serif" font-size="13.00">Migration version: 20161108184339</text>
<text text-anchor="start" x="178" y="-497.6" font-family="Times,serif" font-size="13.00">Generated by RailRoady 1.5.2</text>
<text text-anchor="start" x="178" y="-483.6" font-family="Times,serif" font-size="13.00">http://railroady.prestonlee.com</text>
</g>
<!-- PasswordResetsController -->
<g id="node2" class="node"><title>PasswordResetsController</title>
<path fill="none" stroke="black" d="M369,-221.5C369,-221.5 504,-221.5 504,-221.5 510,-221.5 516,-227.5 516,-233.5 516,-233.5 516,-407.5 516,-407.5 516,-413.5 510,-419.5 504,-419.5 504,-419.5 369,-419.5 369,-419.5 363,-419.5 357,-413.5 357,-407.5 357,-407.5 357,-233.5 357,-233.5 357,-227.5 363,-221.5 369,-221.5"/>
<text text-anchor="middle" x="436.5" y="-404.3" font-family="Times,serif" font-size="14.00">PasswordResetsController</text>
<polyline fill="none" stroke="black" points="357,-396.5 516,-396.5 "/>
<text text-anchor="start" x="365" y="-381.3" font-family="Times,serif" font-size="14.00">create</text>
<text text-anchor="start" x="365" y="-366.3" font-family="Times,serif" font-size="14.00">edit</text>
<text text-anchor="start" x="365" y="-351.3" font-family="Times,serif" font-size="14.00">new</text>
<text text-anchor="start" x="365" y="-336.3" font-family="Times,serif" font-size="14.00">update</text>
<polyline fill="none" stroke="black" points="357,-328.5 516,-328.5 "/>
<polyline fill="none" stroke="black" points="357,-304.5 516,-304.5 "/>
<text text-anchor="start" x="365" y="-289.3" font-family="Times,serif" font-size="14.00">_layout</text>
<text text-anchor="start" x="365" y="-274.3" font-family="Times,serif" font-size="14.00">check_expiration</text>
<text text-anchor="start" x="365" y="-259.3" font-family="Times,serif" font-size="14.00">get_user</text>
<text text-anchor="start" x="365" y="-244.3" font-family="Times,serif" font-size="14.00">user_params</text>
<text text-anchor="start" x="365" y="-229.3" font-family="Times,serif" font-size="14.00">valid_user</text>
</g>
<!-- LikesController -->
<g id="node3" class="node"><title>LikesController</title>
<path fill="none" stroke="black" d="M233,-17.5C233,-17.5 311,-17.5 311,-17.5 317,-17.5 323,-23.5 323,-29.5 323,-29.5 323,-113.5 323,-113.5 323,-119.5 317,-125.5 311,-125.5 311,-125.5 233,-125.5 233,-125.5 227,-125.5 221,-119.5 221,-113.5 221,-113.5 221,-29.5 221,-29.5 221,-23.5 227,-17.5 233,-17.5"/>
<text text-anchor="middle" x="272" y="-110.3" font-family="Times,serif" font-size="14.00">LikesController</text>
<polyline fill="none" stroke="black" points="221,-102.5 323,-102.5 "/>
<text text-anchor="start" x="229" y="-87.3" font-family="Times,serif" font-size="14.00">create</text>
<text text-anchor="start" x="229" y="-72.3" font-family="Times,serif" font-size="14.00">delete</text>
<polyline fill="none" stroke="black" points="221,-64.5 323,-64.5 "/>
<polyline fill="none" stroke="black" points="221,-40.5 323,-40.5 "/>
<text text-anchor="start" x="229" y="-25.3" font-family="Times,serif" font-size="14.00">_layout</text>
</g>
<!-- SessionsController -->
<g id="node4" class="node"><title>SessionsController</title>
<path fill="none" stroke="black" d="M590,-0.5C590,-0.5 685,-0.5 685,-0.5 691,-0.5 697,-6.5 697,-12.5 697,-12.5 697,-111.5 697,-111.5 697,-117.5 691,-123.5 685,-123.5 685,-123.5 590,-123.5 590,-123.5 584,-123.5 578,-117.5 578,-111.5 578,-111.5 578,-12.5 578,-12.5 578,-6.5 584,-0.5 590,-0.5"/>
<text text-anchor="middle" x="637.5" y="-108.3" font-family="Times,serif" font-size="14.00">SessionsController</text>
<polyline fill="none" stroke="black" points="578,-100.5 697,-100.5 "/>
<text text-anchor="start" x="586" y="-85.3" font-family="Times,serif" font-size="14.00">create</text>
<text text-anchor="start" x="586" y="-70.3" font-family="Times,serif" font-size="14.00">destroy</text>
<text text-anchor="start" x="586" y="-55.3" font-family="Times,serif" font-size="14.00">new</text>
<polyline fill="none" stroke="black" points="578,-47.5 697,-47.5 "/>
<polyline fill="none" stroke="black" points="578,-23.5 697,-23.5 "/>
<text text-anchor="start" x="586" y="-8.3" font-family="Times,serif" font-size="14.00">_layout</text>
</g>
<!-- AccountActivationsController -->
<g id="node5" class="node"><title>AccountActivationsController</title>
<path fill="none" stroke="black" d="M369,-102.5C369,-102.5 525,-102.5 525,-102.5 531,-102.5 537,-108.5 537,-114.5 537,-114.5 537,-183.5 537,-183.5 537,-189.5 531,-195.5 525,-195.5 525,-195.5 369,-195.5 369,-195.5 363,-195.5 357,-189.5 357,-183.5 357,-183.5 357,-114.5 357,-114.5 357,-108.5 363,-102.5 369,-102.5"/>
<text text-anchor="middle" x="447" y="-180.3" font-family="Times,serif" font-size="14.00">AccountActivationsController</text>
<polyline fill="none" stroke="black" points="357,-172.5 537,-172.5 "/>
<text text-anchor="start" x="365" y="-157.3" font-family="Times,serif" font-size="14.00">edit</text>
<polyline fill="none" stroke="black" points="357,-149.5 537,-149.5 "/>
<polyline fill="none" stroke="black" points="357,-125.5 537,-125.5 "/>
<text text-anchor="start" x="365" y="-110.3" font-family="Times,serif" font-size="14.00">_layout</text>
</g>
<!-- UsersController -->
<g id="node6" class="node"><title>UsersController</title>
<path fill="none" stroke="black" d="M233,-153.5C233,-153.5 312,-153.5 312,-153.5 318,-153.5 324,-159.5 324,-165.5 324,-165.5 324,-429.5 324,-429.5 324,-435.5 318,-441.5 312,-441.5 312,-441.5 233,-441.5 233,-441.5 227,-441.5 221,-435.5 221,-429.5 221,-429.5 221,-165.5 221,-165.5 221,-159.5 227,-153.5 233,-153.5"/>
<text text-anchor="middle" x="272.5" y="-426.3" font-family="Times,serif" font-size="14.00">UsersController</text>
<polyline fill="none" stroke="black" points="221,-418.5 324,-418.5 "/>
<text text-anchor="start" x="229" y="-403.3" font-family="Times,serif" font-size="14.00">create</text>
<text text-anchor="start" x="229" y="-388.3" font-family="Times,serif" font-size="14.00">destroy</text>
<text text-anchor="start" x="229" y="-373.3" font-family="Times,serif" font-size="14.00">edit</text>
<text text-anchor="start" x="229" y="-358.3" font-family="Times,serif" font-size="14.00">followers</text>
<text text-anchor="start" x="229" y="-343.3" font-family="Times,serif" font-size="14.00">following</text>
<text text-anchor="start" x="229" y="-328.3" font-family="Times,serif" font-size="14.00">friends</text>
<text text-anchor="start" x="229" y="-313.3" font-family="Times,serif" font-size="14.00">index</text>
<text text-anchor="start" x="229" y="-298.3" font-family="Times,serif" font-size="14.00">new</text>
<text text-anchor="start" x="229" y="-283.3" font-family="Times,serif" font-size="14.00">request_friends</text>
<text text-anchor="start" x="229" y="-268.3" font-family="Times,serif" font-size="14.00">show</text>
<text text-anchor="start" x="229" y="-253.3" font-family="Times,serif" font-size="14.00">update</text>
<polyline fill="none" stroke="black" points="221,-245.5 324,-245.5 "/>
<polyline fill="none" stroke="black" points="221,-221.5 324,-221.5 "/>
<text text-anchor="start" x="229" y="-206.3" font-family="Times,serif" font-size="14.00">_layout</text>
<text text-anchor="start" x="229" y="-191.3" font-family="Times,serif" font-size="14.00">admin_user</text>
<text text-anchor="start" x="229" y="-176.3" font-family="Times,serif" font-size="14.00">super_user</text>
<text text-anchor="start" x="229" y="-161.3" font-family="Times,serif" font-size="14.00">user_params</text>
</g>
<!-- FriendshipsController -->
<g id="node7" class="node"><title>FriendshipsController</title>
<path fill="none" stroke="black" d="M63,-102.5C63,-102.5 174,-102.5 174,-102.5 180,-102.5 186,-108.5 186,-114.5 186,-114.5 186,-228.5 186,-228.5 186,-234.5 180,-240.5 174,-240.5 174,-240.5 63,-240.5 63,-240.5 57,-240.5 51,-234.5 51,-228.5 51,-228.5 51,-114.5 51,-114.5 51,-108.5 57,-102.5 63,-102.5"/>
<text text-anchor="middle" x="118.5" y="-225.3" font-family="Times,serif" font-size="14.00">FriendshipsController</text>
<polyline fill="none" stroke="black" points="51,-217.5 186,-217.5 "/>
<text text-anchor="start" x="59" y="-202.3" font-family="Times,serif" font-size="14.00">create</text>
<text text-anchor="start" x="59" y="-187.3" font-family="Times,serif" font-size="14.00">destroy</text>
<text text-anchor="start" x="59" y="-172.3" font-family="Times,serif" font-size="14.00">update</text>
<polyline fill="none" stroke="black" points="51,-164.5 186,-164.5 "/>
<polyline fill="none" stroke="black" points="51,-140.5 186,-140.5 "/>
<text text-anchor="start" x="59" y="-125.3" font-family="Times,serif" font-size="14.00">_layout</text>
<text text-anchor="start" x="59" y="-110.3" font-family="Times,serif" font-size="14.00">check_super_user</text>
</g>
<!-- Users::OmniauthCallbacksController -->
<g id="node8" class="node"><title>Users::OmniauthCallbacksController</title>
<path fill="none" stroke="black" d="M437,-459.5C437,-459.5 631,-459.5 631,-459.5 637,-459.5 643,-465.5 643,-471.5 643,-471.5 643,-600.5 643,-600.5 643,-606.5 637,-612.5 631,-612.5 631,-612.5 437,-612.5 437,-612.5 431,-612.5 425,-606.5 425,-600.5 425,-600.5 425,-471.5 425,-471.5 425,-465.5 431,-459.5 437,-459.5"/>
<text text-anchor="middle" x="534" y="-597.3" font-family="Times,serif" font-size="14.00">Users::OmniauthCallbacksController</text>
<polyline fill="none" stroke="black" points="425,-589.5 643,-589.5 "/>
<text text-anchor="start" x="433" y="-574.3" font-family="Times,serif" font-size="14.00">facebook</text>
<text text-anchor="start" x="433" y="-559.3" font-family="Times,serif" font-size="14.00">failure</text>
<polyline fill="none" stroke="black" points="425,-551.5 643,-551.5 "/>
<polyline fill="none" stroke="black" points="425,-527.5 643,-527.5 "/>
<text text-anchor="start" x="433" y="-512.3" font-family="Times,serif" font-size="14.00">_layout</text>
<text text-anchor="start" x="433" y="-497.3" font-family="Times,serif" font-size="14.00">face_api</text>
<text text-anchor="start" x="433" y="-482.3" font-family="Times,serif" font-size="14.00">getFaceGraph</text>
<text text-anchor="start" x="433" y="-467.3" font-family="Times,serif" font-size="14.00">load_or_create</text>
</g>
<!-- StaticPagesController -->
<g id="node9" class="node"><title>StaticPagesController</title>
<path fill="none" stroke="black" d="M556,-221.5C556,-221.5 666,-221.5 666,-221.5 672,-221.5 678,-227.5 678,-233.5 678,-233.5 678,-347.5 678,-347.5 678,-353.5 672,-359.5 666,-359.5 666,-359.5 556,-359.5 556,-359.5 550,-359.5 544,-353.5 544,-347.5 544,-347.5 544,-233.5 544,-233.5 544,-227.5 550,-221.5 556,-221.5"/>
<text text-anchor="middle" x="611" y="-344.3" font-family="Times,serif" font-size="14.00">StaticPagesController</text>
<polyline fill="none" stroke="black" points="544,-336.5 678,-336.5 "/>
<text text-anchor="start" x="552" y="-321.3" font-family="Times,serif" font-size="14.00">about</text>
<text text-anchor="start" x="552" y="-306.3" font-family="Times,serif" font-size="14.00">contact</text>
<text text-anchor="start" x="552" y="-291.3" font-family="Times,serif" font-size="14.00">help</text>
<text text-anchor="start" x="552" y="-276.3" font-family="Times,serif" font-size="14.00">home</text>
<polyline fill="none" stroke="black" points="544,-268.5 678,-268.5 "/>
<polyline fill="none" stroke="black" points="544,-244.5 678,-244.5 "/>
<text text-anchor="start" x="552" y="-229.3" font-family="Times,serif" font-size="14.00">_layout</text>
</g>
<!-- MicropostsController -->
<g id="node10" class="node"><title>MicropostsController</title>
<path fill="none" stroke="black" d="M63,-272.5C63,-272.5 173,-272.5 173,-272.5 179,-272.5 185,-278.5 185,-284.5 185,-284.5 185,-428.5 185,-428.5 185,-434.5 179,-440.5 173,-440.5 173,-440.5 63,-440.5 63,-440.5 57,-440.5 51,-434.5 51,-428.5 51,-428.5 51,-284.5 51,-284.5 51,-278.5 57,-272.5 63,-272.5"/>
<text text-anchor="middle" x="118" y="-425.3" font-family="Times,serif" font-size="14.00">MicropostsController</text>
<polyline fill="none" stroke="black" points="51,-417.5 185,-417.5 "/>
<text text-anchor="start" x="59" y="-402.3" font-family="Times,serif" font-size="14.00">create</text>
<text text-anchor="start" x="59" y="-387.3" font-family="Times,serif" font-size="14.00">destroy</text>
<text text-anchor="start" x="59" y="-372.3" font-family="Times,serif" font-size="14.00">like</text>
<text text-anchor="start" x="59" y="-357.3" font-family="Times,serif" font-size="14.00">unlike</text>
<polyline fill="none" stroke="black" points="51,-349.5 185,-349.5 "/>
<polyline fill="none" stroke="black" points="51,-325.5 185,-325.5 "/>
<text text-anchor="start" x="59" y="-310.3" font-family="Times,serif" font-size="14.00">_layout</text>
<text text-anchor="start" x="59" y="-295.3" font-family="Times,serif" font-size="14.00">correct_user</text>
<text text-anchor="start" x="59" y="-280.3" font-family="Times,serif" font-size="14.00">micropost_params</text>
</g>
<!-- ApplicationController -->
<g id="node11" class="node"><title>ApplicationController</title>
<path fill="none" stroke="black" d="M12,-578.5C12,-578.5 124,-578.5 124,-578.5 130,-578.5 136,-584.5 136,-590.5 136,-590.5 136,-690.5 136,-690.5 136,-696.5 130,-702.5 124,-702.5 124,-702.5 12,-702.5 12,-702.5 6,-702.5 0,-696.5 0,-690.5 0,-690.5 0,-590.5 0,-590.5 0,-584.5 6,-578.5 12,-578.5"/>
<text text-anchor="middle" x="68" y="-687.3" font-family="Times,serif" font-size="14.00">ApplicationController</text>
<polyline fill="none" stroke="black" points="0,-679.5 136,-679.5 "/>
<polyline fill="none" stroke="black" points="0,-655.5 136,-655.5 "/>
<polyline fill="none" stroke="black" points="0,-631.5 136,-631.5 "/>
<text text-anchor="start" x="8" y="-616.3" font-family="Times,serif" font-size="14.00">_layout</text>
<text text-anchor="start" x="8" y="-601.3" font-family="Times,serif" font-size="14.00">correct_user</text>
<text text-anchor="start" x="8" y="-586.3" font-family="Times,serif" font-size="14.00">logged_in_user</text>
</g>
<!-- RelationshipsController -->
<g id="node12" class="node"><title>RelationshipsController</title>
<path fill="none" stroke="black" d="M250,-595.5C250,-595.5 372,-595.5 372,-595.5 378,-595.5 384,-601.5 384,-607.5 384,-607.5 384,-691.5 384,-691.5 384,-697.5 378,-703.5 372,-703.5 372,-703.5 250,-703.5 250,-703.5 244,-703.5 238,-697.5 238,-691.5 238,-691.5 238,-607.5 238,-607.5 238,-601.5 244,-595.5 250,-595.5"/>
<text text-anchor="middle" x="311" y="-688.3" font-family="Times,serif" font-size="14.00">RelationshipsController</text>
<polyline fill="none" stroke="black" points="238,-680.5 384,-680.5 "/>
<text text-anchor="start" x="246" y="-665.3" font-family="Times,serif" font-size="14.00">create</text>
<text text-anchor="start" x="246" y="-650.3" font-family="Times,serif" font-size="14.00">destroy</text>
<polyline fill="none" stroke="black" points="238,-642.5 384,-642.5 "/>
<polyline fill="none" stroke="black" points="238,-618.5 384,-618.5 "/>
<text text-anchor="start" x="246" y="-603.3" font-family="Times,serif" font-size="14.00">_layout</text>
</g>
</g>
</svg>
