<?xml version="1.0" encoding="UTF-8" standalone="no"?>
<!DOCTYPE svg PUBLIC "-//W3C//DTD SVG 1.1//EN"
 "http://www.w3.org/Graphics/SVG/1.1/DTD/svg11.dtd">
<!-- Generated by graphviz version 2.36.0 (20140111.2315)
 -->
<!-- Title: models_diagram Pages: 1 -->
<svg width="782pt" height="834pt"
 viewBox="0.00 0.00 782.26 834.00" xmlns="http://www.w3.org/2000/svg" xmlns:xlink="http://www.w3.org/1999/xlink">
<g id="graph0" class="graph" transform="scale(1 1) rotate(0) translate(4 830)">
<title>models_diagram</title>
<polygon fill="none" stroke="none" points="-4,4 -4,-830 778.262,-830 778.262,4 -4,4"/>
<!-- _diagram_info -->
<g id="node1" class="node"><title>_diagram_info</title>
<text text-anchor="start" x="244.262" y="-774.6" font-family="Times,serif" font-size="13.00">Models diagram</text>
<text text-anchor="start" x="244.262" y="-760.6" font-family="Times,serif" font-size="13.00">Date: Nov 19 2016 &#45; 17:21</text>
<text text-anchor="start" x="244.262" y="-746.6" font-family="Times,serif" font-size="13.00">Migration version: 20161108184339</text>
<text text-anchor="start" x="244.262" y="-732.6" font-family="Times,serif" font-size="13.00">Generated by RailRoady 1.5.2</text>
<text text-anchor="start" x="244.262" y="-718.6" font-family="Times,serif" font-size="13.00">http://railroady.prestonlee.com</text>
</g>
<!-- Place -->
<g id="node2" class="node"><title>Place</title>
<path fill="none" stroke="black" d="M480.262,-674.5C480.262,-674.5 590.262,-674.5 590.262,-674.5 596.262,-674.5 602.262,-680.5 602.262,-686.5 602.262,-686.5 602.262,-813.5 602.262,-813.5 602.262,-819.5 596.262,-825.5 590.262,-825.5 590.262,-825.5 480.262,-825.5 480.262,-825.5 474.262,-825.5 468.262,-819.5 468.262,-813.5 468.262,-813.5 468.262,-686.5 468.262,-686.5 468.262,-680.5 474.262,-674.5 480.262,-674.5"/>
<text text-anchor="middle" x="535.262" y="-810.3" font-family="Times,serif" font-size="14.00">Place</text>
<polyline fill="none" stroke="black" points="468.262,-802.5 602.262,-802.5 "/>
<text text-anchor="start" x="476.262" y="-787.3" font-family="Times,serif" font-size="14.00">id :INTEGER</text>
<text text-anchor="start" x="476.262" y="-772.3" font-family="Times,serif" font-size="14.00">user_id :integer</text>
<text text-anchor="start" x="476.262" y="-757.3" font-family="Times,serif" font-size="14.00">lat :float</text>
<text text-anchor="start" x="476.262" y="-742.3" font-family="Times,serif" font-size="14.00">lng :float</text>
<text text-anchor="start" x="476.262" y="-727.3" font-family="Times,serif" font-size="14.00">name :varchar</text>
<text text-anchor="start" x="476.262" y="-712.3" font-family="Times,serif" font-size="14.00">micropost_id :integer</text>
<text text-anchor="start" x="476.262" y="-697.3" font-family="Times,serif" font-size="14.00">created_at :datetime</text>
<text text-anchor="start" x="476.262" y="-682.3" font-family="Times,serif" font-size="14.00">updated_at :datetime</text>
</g>
<!-- Micropost -->
<g id="node7" class="node"><title>Micropost</title>
<path fill="none" stroke="black" d="M406.762,-514.5C406.762,-514.5 513.762,-514.5 513.762,-514.5 519.762,-514.5 525.762,-520.5 525.762,-526.5 525.762,-526.5 525.762,-623.5 525.762,-623.5 525.762,-629.5 519.762,-635.5 513.762,-635.5 513.762,-635.5 406.762,-635.5 406.762,-635.5 400.762,-635.5 394.762,-629.5 394.762,-623.5 394.762,-623.5 394.762,-526.5 394.762,-526.5 394.762,-520.5 400.762,-514.5 406.762,-514.5"/>
<text text-anchor="middle" x="460.262" y="-620.3" font-family="Times,serif" font-size="14.00">Micropost</text>
<polyline fill="none" stroke="black" points="394.762,-612.5 525.762,-612.5 "/>
<text text-anchor="start" x="402.762" y="-597.3" font-family="Times,serif" font-size="14.00">id :INTEGER</text>
<text text-anchor="start" x="402.762" y="-582.3" font-family="Times,serif" font-size="14.00">content :text</text>
<text text-anchor="start" x="402.762" y="-567.3" font-family="Times,serif" font-size="14.00">user_id :integer</text>
<text text-anchor="start" x="402.762" y="-552.3" font-family="Times,serif" font-size="14.00">created_at :datetime</text>
<text text-anchor="start" x="402.762" y="-537.3" font-family="Times,serif" font-size="14.00">updated_at :datetime</text>
<text text-anchor="start" x="402.762" y="-522.3" font-family="Times,serif" font-size="14.00">picture :varchar</text>
</g>
<!-- Place&#45;&gt;Micropost -->
<g id="edge1" class="edge"><title>Place&#45;&gt;Micropost</title>
<path fill="none" stroke="#0204f6" d="M492.989,-667.042C489.505,-659.071 486.074,-651.049 482.816,-643.247"/>
<ellipse fill="none" stroke="#0204f6" cx="494.606" cy="-670.716" rx="4.00002" ry="4.00002"/>
<ellipse fill="#0204f6" stroke="#0204f6" cx="481.15" cy="-639.224" rx="4.00001" ry="4.00001"/>
</g>
<!-- Photo -->
<g id="node9" class="node"><title>Photo</title>
<path fill="none" stroke="black" d="M616.762,-522C616.762,-522 723.762,-522 723.762,-522 729.762,-522 735.762,-528 735.762,-534 735.762,-534 735.762,-616 735.762,-616 735.762,-622 729.762,-628 723.762,-628 723.762,-628 616.762,-628 616.762,-628 610.762,-628 604.762,-622 604.762,-616 604.762,-616 604.762,-534 604.762,-534 604.762,-528 610.762,-522 616.762,-522"/>
<text text-anchor="middle" x="670.262" y="-612.8" font-family="Times,serif" font-size="14.00">Photo</text>
<polyline fill="none" stroke="black" points="604.762,-605 735.762,-605 "/>
<text text-anchor="start" x="612.762" y="-589.8" font-family="Times,serif" font-size="14.00">id :INTEGER</text>
<text text-anchor="start" x="612.762" y="-574.8" font-family="Times,serif" font-size="14.00">picture :varchar</text>
<text text-anchor="start" x="612.762" y="-559.8" font-family="Times,serif" font-size="14.00">place_id :integer</text>
<text text-anchor="start" x="612.762" y="-544.8" font-family="Times,serif" font-size="14.00">created_at :datetime</text>
<text text-anchor="start" x="612.762" y="-529.8" font-family="Times,serif" font-size="14.00">updated_at :datetime</text>
</g>
<!-- Place&#45;&gt;Photo -->
<g id="edge2" class="edge"><title>Place&#45;&gt;Photo</title>
<path fill="none" stroke="#6405bc" d="M598.631,-667.793C606.914,-657.179 615.279,-646.459 623.227,-636.274"/>
<ellipse fill="none" stroke="#6405bc" cx="595.954" cy="-671.224" rx="4.00002" ry="4.00002"/>
<polygon fill="#6405bc" stroke="#6405bc" points="623.35,-636.117 633.05,-631.001 626.426,-632.175 629.502,-628.233 629.502,-628.233 629.502,-628.233 626.426,-632.175 625.954,-625.465 623.35,-636.117 623.35,-636.117"/>
</g>
<!-- Relationship -->
<g id="node3" class="node"><title>Relationship</title>
<path fill="none" stroke="black" d="M15.7617,-8C15.7617,-8 122.762,-8 122.762,-8 128.762,-8 134.762,-14 134.762,-20 134.762,-20 134.762,-102 134.762,-102 134.762,-108 128.762,-114 122.762,-114 122.762,-114 15.7617,-114 15.7617,-114 9.76175,-114 3.76175,-108 3.76175,-102 3.76175,-102 3.76175,-20 3.76175,-20 3.76175,-14 9.76175,-8 15.7617,-8"/>
<text text-anchor="middle" x="69.2617" y="-98.8" font-family="Times,serif" font-size="14.00">Relationship</text>
<polyline fill="none" stroke="black" points="3.76175,-91 134.762,-91 "/>
<text text-anchor="start" x="11.7617" y="-75.8" font-family="Times,serif" font-size="14.00">id :INTEGER</text>
<text text-anchor="start" x="11.7617" y="-60.8" font-family="Times,serif" font-size="14.00">follower_id :integer</text>
<text text-anchor="start" x="11.7617" y="-45.8" font-family="Times,serif" font-size="14.00">followed_id :integer</text>
<text text-anchor="start" x="11.7617" y="-30.8" font-family="Times,serif" font-size="14.00">created_at :datetime</text>
<text text-anchor="start" x="11.7617" y="-15.8" font-family="Times,serif" font-size="14.00">updated_at :datetime</text>
</g>
<!-- User -->
<g id="node4" class="node"><title>User</title>
<path fill="none" stroke="black" d="M188.262,-175C188.262,-175 324.262,-175 324.262,-175 330.262,-175 336.262,-181 336.262,-187 336.262,-187 336.262,-449 336.262,-449 336.262,-455 330.262,-461 324.262,-461 324.262,-461 188.262,-461 188.262,-461 182.262,-461 176.262,-455 176.262,-449 176.262,-449 176.262,-187 176.262,-187 176.262,-181 182.262,-175 188.262,-175"/>
<text text-anchor="middle" x="256.262" y="-445.8" font-family="Times,serif" font-size="14.00">User</text>
<polyline fill="none" stroke="black" points="176.262,-438 336.262,-438 "/>
<text text-anchor="start" x="184.262" y="-422.8" font-family="Times,serif" font-size="14.00">id :INTEGER</text>
<text text-anchor="start" x="184.262" y="-407.8" font-family="Times,serif" font-size="14.00">name :varchar</text>
<text text-anchor="start" x="184.262" y="-392.8" font-family="Times,serif" font-size="14.00">email :varchar</text>
<text text-anchor="start" x="184.262" y="-377.8" font-family="Times,serif" font-size="14.00">created_at :datetime</text>
<text text-anchor="start" x="184.262" y="-362.8" font-family="Times,serif" font-size="14.00">updated_at :datetime</text>
<text text-anchor="start" x="184.262" y="-347.8" font-family="Times,serif" font-size="14.00">password_digest :varchar</text>
<text text-anchor="start" x="184.262" y="-332.8" font-family="Times,serif" font-size="14.00">remember_digest :varchar</text>
<text text-anchor="start" x="184.262" y="-317.8" font-family="Times,serif" font-size="14.00">admin :boolean</text>
<text text-anchor="start" x="184.262" y="-302.8" font-family="Times,serif" font-size="14.00">activation_digest :varchar</text>
<text text-anchor="start" x="184.262" y="-287.8" font-family="Times,serif" font-size="14.00">activated :boolean</text>
<text text-anchor="start" x="184.262" y="-272.8" font-family="Times,serif" font-size="14.00">activated_at :datetime</text>
<text text-anchor="start" x="184.262" y="-257.8" font-family="Times,serif" font-size="14.00">reset_digest :varchar</text>
<text text-anchor="start" x="184.262" y="-242.8" font-family="Times,serif" font-size="14.00">reset_sent_at :datetime</text>
<text text-anchor="start" x="184.262" y="-227.8" font-family="Times,serif" font-size="14.00">provider :varchar</text>
<text text-anchor="start" x="184.262" y="-212.8" font-family="Times,serif" font-size="14.00">uid :varchar</text>
<text text-anchor="start" x="184.262" y="-197.8" font-family="Times,serif" font-size="14.00">facebook_digest :varchar</text>
<text text-anchor="start" x="184.262" y="-182.8" font-family="Times,serif" font-size="14.00">super_user :boolean</text>
</g>
<!-- User&#45;&gt;Place -->
<g id="edge3" class="edge"><title>User&#45;&gt;Place</title>
<path fill="none" stroke="#8d0ff1" d="M343.889,-353.743C409.435,-384.937 494.355,-437.659 534.262,-514 558.122,-559.643 558.693,-617.415 553.143,-664.255"/>
<ellipse fill="none" stroke="#8d0ff1" cx="340.022" cy="-351.93" rx="4.00002" ry="4.00002"/>
<polygon fill="#8d0ff1" stroke="#8d0ff1" points="553.116,-664.463 547.366,-673.801 552.472,-669.421 551.829,-674.38 551.829,-674.38 551.829,-674.38 552.472,-669.421 556.291,-674.959 553.116,-664.463 553.116,-664.463"/>
</g>
<!-- User&#45;&gt;Relationship -->
<g id="edge10" class="edge"><title>User&#45;&gt;Relationship</title>
<path fill="none" stroke="#1c35fc" d="M168.854,-286.8C110.792,-261.638 39.0638,-219.533 4.26175,-156 -1.69582,-145.124 -0.870112,-133.956 3.78182,-123.286"/>
<ellipse fill="none" stroke="#1c35fc" cx="172.544" cy="-288.37" rx="4.00002" ry="4.00002"/>
<polygon fill="#1c35fc" stroke="#1c35fc" points="3.79175,-123.268 12.4886,-116.588 6.1581,-118.863 8.52445,-114.459 8.52445,-114.459 8.52445,-114.459 6.1581,-118.863 4.56031,-112.329 3.79175,-123.268 3.79175,-123.268"/>
<text text-anchor="middle" x="58.7617" y="-144.3" font-family="Times,serif" font-size="14.00">active_relationships</text>
</g>
<!-- User&#45;&gt;Relationship -->
<g id="edge12" class="edge"><title>User&#45;&gt;Relationship</title>
<path fill="none" stroke="#f14fab" d="M171.39,-201.265C151.413,-174.025 130.907,-146.062 113.56,-122.407"/>
<ellipse fill="none" stroke="#f14fab" cx="173.778" cy="-204.522" rx="4.00002" ry="4.00002"/>
<polygon fill="#f14fab" stroke="#f14fab" points="113.476,-122.292 111.191,-111.567 110.519,-118.26 107.562,-114.228 107.562,-114.228 107.562,-114.228 110.519,-118.26 103.933,-116.889 113.476,-122.292 113.476,-122.292"/>
<text text-anchor="middle" x="193.262" y="-144.3" font-family="Times,serif" font-size="14.00">passive_relationships</text>
</g>
<!-- User&#45;&gt;User -->
<g id="edge8" class="edge"><title>User&#45;&gt;User</title>
<path fill="none" stroke="#e77f6e" d="M346.511,-325.056C351.375,-323.33 354.262,-320.978 354.262,-318 354.262,-315.022 351.375,-312.67 346.511,-310.944"/>
<polygon fill="#e77f6e" stroke="#e77f6e" points="346.358,-325.092 335.596,-322.988 341.49,-326.231 336.621,-327.37 336.621,-327.37 336.621,-327.37 341.49,-326.231 337.646,-331.751 346.358,-325.092 346.358,-325.092"/>
<polygon fill="#e77f6e" stroke="#e77f6e" points="346.358,-310.908 337.646,-304.249 341.49,-309.769 336.621,-308.63 336.621,-308.63 336.621,-308.63 341.49,-309.769 335.596,-313.012 346.358,-310.908 346.358,-310.908"/>
<text text-anchor="middle" x="373.262" y="-314.3" font-family="Times,serif" font-size="14.00">friends</text>
</g>
<!-- User&#45;&gt;User -->
<g id="edge11" class="edge"><title>User&#45;&gt;User</title>
<path fill="none" stroke="#2fc078" d="M346.424,-339.082C372.069,-337.933 392.262,-330.905 392.262,-318 392.262,-305.095 372.069,-298.067 346.424,-296.918"/>
<polygon fill="#2fc078" stroke="#2fc078" points="346.358,-339.082 336.29,-334.735 341.358,-339.158 336.359,-339.234 336.359,-339.234 336.359,-339.234 341.358,-339.158 336.427,-343.734 346.358,-339.082 346.358,-339.082"/>
<polygon fill="#2fc078" stroke="#2fc078" points="346.358,-296.918 336.427,-292.266 341.358,-296.842 336.359,-296.766 336.359,-296.766 336.359,-296.766 341.358,-296.842 336.29,-301.265 346.358,-296.918 346.358,-296.918"/>
<text text-anchor="middle" x="418.762" y="-314.3" font-family="Times,serif" font-size="14.00">following</text>
</g>
<!-- User&#45;&gt;User -->
<g id="edge13" class="edge"><title>User&#45;&gt;User</title>
<path fill="none" stroke="#de81a4" d="M346.936,-349.037C396.53,-353.041 445.262,-342.695 445.262,-318 445.262,-293.305 396.53,-282.959 346.936,-286.963"/>
<polygon fill="#de81a4" stroke="#de81a4" points="346.639,-349.007 337.14,-343.528 341.664,-348.506 336.689,-348.005 336.689,-348.005 336.689,-348.005 341.664,-348.506 336.238,-352.483 346.639,-349.007 346.639,-349.007"/>
<polygon fill="#de81a4" stroke="#de81a4" points="346.639,-286.993 336.238,-283.517 341.664,-287.494 336.689,-287.995 336.689,-287.995 336.689,-287.995 341.664,-287.494 337.14,-292.472 346.639,-286.993 346.639,-286.993"/>
<text text-anchor="middle" x="471.262" y="-314.3" font-family="Times,serif" font-size="14.00">followers</text>
</g>
<!-- Like -->
<g id="node5" class="node"><title>Like</title>
<path fill="none" stroke="black" d="M488.262,-8C488.262,-8 598.262,-8 598.262,-8 604.262,-8 610.262,-14 610.262,-20 610.262,-20 610.262,-102 610.262,-102 610.262,-108 604.262,-114 598.262,-114 598.262,-114 488.262,-114 488.262,-114 482.262,-114 476.262,-108 476.262,-102 476.262,-102 476.262,-20 476.262,-20 476.262,-14 482.262,-8 488.262,-8"/>
<text text-anchor="middle" x="543.262" y="-98.8" font-family="Times,serif" font-size="14.00">Like</text>
<polyline fill="none" stroke="black" points="476.262,-91 610.262,-91 "/>
<text text-anchor="start" x="484.262" y="-75.8" font-family="Times,serif" font-size="14.00">id :INTEGER</text>
<text text-anchor="start" x="484.262" y="-60.8" font-family="Times,serif" font-size="14.00">user_id :integer</text>
<text text-anchor="start" x="484.262" y="-45.8" font-family="Times,serif" font-size="14.00">micropost_id :integer</text>
<text text-anchor="start" x="484.262" y="-30.8" font-family="Times,serif" font-size="14.00">created_at :datetime</text>
<text text-anchor="start" x="484.262" y="-15.8" font-family="Times,serif" font-size="14.00">updated_at :datetime</text>
</g>
<!-- User&#45;&gt;Like -->
<g id="edge5" class="edge"><title>User&#45;&gt;Like</title>
<path fill="none" stroke="#b6d26b" d="M342.699,-240.201C385.629,-202.057 436.699,-156.682 476.56,-121.265"/>
<ellipse fill="none" stroke="#b6d26b" cx="339.579" cy="-242.972" rx="4.00002" ry="4.00002"/>
<polygon fill="#b6d26b" stroke="#b6d26b" points="476.902,-120.961 487.366,-117.683 480.639,-117.64 484.377,-114.319 484.377,-114.319 484.377,-114.319 480.639,-117.64 481.388,-110.955 476.902,-120.961 476.902,-120.961"/>
</g>
<!-- Friendship -->
<g id="node6" class="node"><title>Friendship</title>
<path fill="none" stroke="black" d="M329.762,-0.5C329.762,-0.5 436.762,-0.5 436.762,-0.5 442.762,-0.5 448.762,-6.5 448.762,-12.5 448.762,-12.5 448.762,-109.5 448.762,-109.5 448.762,-115.5 442.762,-121.5 436.762,-121.5 436.762,-121.5 329.762,-121.5 329.762,-121.5 323.762,-121.5 317.762,-115.5 317.762,-109.5 317.762,-109.5 317.762,-12.5 317.762,-12.5 317.762,-6.5 323.762,-0.5 329.762,-0.5"/>
<text text-anchor="middle" x="383.262" y="-106.3" font-family="Times,serif" font-size="14.00">Friendship</text>
<polyline fill="none" stroke="black" points="317.762,-98.5 448.762,-98.5 "/>
<text text-anchor="start" x="325.762" y="-83.3" font-family="Times,serif" font-size="14.00">id :INTEGER</text>
<text text-anchor="start" x="325.762" y="-68.3" font-family="Times,serif" font-size="14.00">user_id :integer</text>
<text text-anchor="start" x="325.762" y="-53.3" font-family="Times,serif" font-size="14.00">friend_id :integer</text>
<text text-anchor="start" x="325.762" y="-38.3" font-family="Times,serif" font-size="14.00">created_at :datetime</text>
<text text-anchor="start" x="325.762" y="-23.3" font-family="Times,serif" font-size="14.00">updated_at :datetime</text>
<text text-anchor="start" x="325.762" y="-8.3" font-family="Times,serif" font-size="14.00">transition :varchar</text>
</g>
<!-- User&#45;&gt;Friendship -->
<g id="edge7" class="edge"><title>User&#45;&gt;Friendship</title>
<path fill="none" stroke="#9288d5" d="M330.712,-167.514C337.055,-154.778 343.248,-142.343 349.027,-130.74"/>
<ellipse fill="none" stroke="#9288d5" cx="328.786" cy="-171.38" rx="4.00002" ry="4.00002"/>
<polygon fill="#9288d5" stroke="#9288d5" points="349.109,-130.574 357.595,-123.629 351.338,-126.098 353.567,-121.623 353.567,-121.623 353.567,-121.623 351.338,-126.098 349.539,-119.617 349.109,-130.574 349.109,-130.574"/>
</g>
<!-- User&#45;&gt;Micropost -->
<g id="edge6" class="edge"><title>User&#45;&gt;Micropost</title>
<path fill="none" stroke="#eb93b9" d="M343.137,-411C362.636,-433.029 382.726,-456.881 400.262,-480 406.468,-488.183 412.679,-497.01 418.625,-505.864"/>
<polygon fill="#eb93b9" stroke="#eb93b9" points="342.92,-410.756 339.63,-400.295 339.595,-407.022 336.269,-403.288 336.269,-403.288 336.269,-403.288 339.595,-407.022 332.909,-406.28 342.92,-410.756 342.92,-410.756"/>
<polygon fill="#eb93b9" stroke="#eb93b9" points="418.717,-506.003 420.485,-516.825 421.477,-510.172 424.237,-514.341 424.237,-514.341 424.237,-514.341 421.477,-510.172 427.989,-511.857 418.717,-506.003 418.717,-506.003"/>
<text text-anchor="middle" x="442.262" y="-484.3" font-family="Times,serif" font-size="14.00">liked_posts</text>
</g>
<!-- User&#45;&gt;Micropost -->
<g id="edge9" class="edge"><title>User&#45;&gt;Micropost</title>
<path fill="none" stroke="#7c94be" d="M327.618,-468.071C334.406,-477.892 341.628,-487.314 349.262,-496 360.013,-508.233 373.055,-519.549 386.366,-529.55"/>
<ellipse fill="none" stroke="#7c94be" cx="325.227" cy="-464.529" rx="4.00002" ry="4.00002"/>
<polygon fill="#7c94be" stroke="#7c94be" points="386.589,-529.713 392.019,-539.24 390.63,-532.658 394.67,-535.603 394.67,-535.603 394.67,-535.603 390.63,-532.658 397.321,-531.967 386.589,-529.713 386.589,-529.713"/>
</g>
<!-- Notify -->
<g id="node10" class="node"><title>Notify</title>
<ellipse fill="none" stroke="black" cx="266.262" cy="-61" rx="33.1991" ry="18"/>
<text text-anchor="middle" x="266.262" y="-57.3" font-family="Times,serif" font-size="14.00">Notify</text>
</g>
<!-- User&#45;&gt;Notify -->
<g id="edge4" class="edge"><title>User&#45;&gt;Notify</title>
<path fill="none" stroke="#711050" d="M262.149,-166.886C263.315,-137.135 264.415,-109.081 265.184,-89.4861"/>
<ellipse fill="none" stroke="#711050" cx="261.989" cy="-170.963" rx="4" ry="4"/>
<polygon fill="#711050" stroke="#711050" points="265.194,-89.2379 270.082,-79.4219 265.389,-84.2417 265.585,-79.2455 265.585,-79.2455 265.585,-79.2455 265.389,-84.2417 261.089,-79.0692 265.194,-89.2379 265.194,-89.2379"/>
</g>
<!-- Micropost&#45;&gt;Place -->
<g id="edge14" class="edge"><title>Micropost&#45;&gt;Place</title>
<path fill="none" stroke="#12fd60" d="M495.98,-643.172C499.453,-650.898 502.945,-658.84 506.341,-666.736"/>
<ellipse fill="none" stroke="#12fd60" cx="494.169" cy="-639.172" rx="4.00002" ry="4.00002"/>
<ellipse fill="#12fd60" stroke="#12fd60" cx="508.033" cy="-670.699" rx="4.00002" ry="4.00002"/>
</g>
<!-- Micropost&#45;&gt;User -->
<g id="edge16" class="edge"><title>Micropost&#45;&gt;User</title>
<path fill="none" stroke="#608d3d" d="M387.348,-513.154C381.713,-507.544 376.274,-501.788 371.262,-496 361.423,-484.638 351.784,-472.373 342.535,-459.786"/>
<polygon fill="#608d3d" stroke="#608d3d" points="387.401,-513.205 391.437,-523.401 390.987,-516.69 394.573,-520.174 394.573,-520.174 394.573,-520.174 390.987,-516.69 397.709,-516.946 387.401,-513.205 387.401,-513.205"/>
<polygon fill="#608d3d" stroke="#608d3d" points="342.381,-459.573 340.159,-448.835 339.448,-455.524 336.515,-451.474 336.515,-451.474 336.515,-451.474 339.448,-455.524 332.87,-454.114 342.381,-459.573 342.381,-459.573"/>
<text text-anchor="middle" x="383.762" y="-484.3" font-family="Times,serif" font-size="14.00">liker</text>
</g>
<!-- Micropost&#45;&gt;Like -->
<g id="edge15" class="edge"><title>Micropost&#45;&gt;Like</title>
<path fill="none" stroke="#c26541" d="M519.225,-507.423C528.683,-493.297 537.061,-477.84 542.262,-462 579.863,-347.475 566.934,-204.363 554.711,-124.079"/>
<ellipse fill="none" stroke="#c26541" cx="516.78" cy="-510.957" rx="4.00002" ry="4.00002"/>
<polygon fill="#c26541" stroke="#c26541" points="554.7,-124.009 557.596,-113.433 553.925,-119.069 553.151,-114.13 553.151,-114.13 553.151,-114.13 553.925,-119.069 548.705,-114.827 554.7,-124.009 554.7,-124.009"/>
</g>
<!-- ApplicationRecord -->
<g id="node8" class="node"><title>ApplicationRecord</title>
<ellipse fill="none" stroke="black" cx="697.262" cy="-750" rx="77.0154" ry="18"/>
<text text-anchor="middle" x="697.262" y="-746.3" font-family="Times,serif" font-size="14.00">ApplicationRecord</text>
</g>
</g>
</svg>
