<?xml version="1.0" encoding="UTF-8" standalone="no"?>
<!DOCTYPE svg PUBLIC "-//W3C//DTD SVG 1.1//EN"
 "http://www.w3.org/Graphics/SVG/1.1/DTD/svg11.dtd">
<!-- Generated by graphviz version 2.36.0 (20140111.2315)
 -->
<!-- Title: models_diagram Pages: 1 -->
<svg width="690pt" height="336pt"
 viewBox="0.00 0.00 690.17 336.00" xmlns="http://www.w3.org/2000/svg" xmlns:xlink="http://www.w3.org/1999/xlink">
<g id="graph0" class="graph" transform="scale(1 1) rotate(0) translate(4 332)">
<title>models_diagram</title>
<polygon fill="none" stroke="none" points="-4,4 -4,-332 686.172,-332 686.172,4 -4,4"/>
<!-- _diagram_info -->
<g id="node1" class="node"><title>_diagram_info</title>
<text text-anchor="start" x="226.172" y="-313.6" font-family="Times,serif" font-size="13.00">Models diagram</text>
<text text-anchor="start" x="226.172" y="-299.6" font-family="Times,serif" font-size="13.00">Date: Nov 19 2016 &#45; 17:21</text>
<text text-anchor="start" x="226.172" y="-285.6" font-family="Times,serif" font-size="13.00">Migration version: 20161108184339</text>
<text text-anchor="start" x="226.172" y="-271.6" font-family="Times,serif" font-size="13.00">Generated by RailRoady 1.5.2</text>
<text text-anchor="start" x="226.172" y="-257.6" font-family="Times,serif" font-size="13.00">http://railroady.prestonlee.com</text>
</g>
<!-- Place -->
<g id="node2" class="node"><title>Place</title>
<ellipse fill="none" stroke="black" cx="480.172" cy="-289" rx="29.3479" ry="18"/>
<text text-anchor="middle" x="480.172" y="-285.3" font-family="Times,serif" font-size="14.00">Place</text>
</g>
<!-- Micropost -->
<g id="node7" class="node"><title>Micropost</title>
<ellipse fill="none" stroke="black" cx="412.172" cy="-194" rx="47.169" ry="18"/>
<text text-anchor="middle" x="412.172" y="-190.3" font-family="Times,serif" font-size="14.00">Micropost</text>
</g>
<!-- Place&#45;&gt;Micropost -->
<g id="edge1" class="edge"><title>Place&#45;&gt;Micropost</title>
<path fill="none" stroke="#d62769" d="M459.237,-267.209C447.509,-252.9 433.498,-233.853 423.672,-218.914"/>
<ellipse fill="none" stroke="#d62769" cx="461.915" cy="-270.403" rx="4.00002" ry="4.00002"/>
<ellipse fill="#d62769" stroke="#d62769" cx="421.37" cy="-215.318" rx="4.00002" ry="4.00002"/>
</g>
<!-- Photo -->
<g id="node9" class="node"><title>Photo</title>
<ellipse fill="none" stroke="black" cx="572.172" cy="-194" rx="31.2965" ry="18"/>
<text text-anchor="middle" x="572.172" y="-190.3" font-family="Times,serif" font-size="14.00">Photo</text>
</g>
<!-- Place&#45;&gt;Photo -->
<g id="edge2" class="edge"><title>Place&#45;&gt;Photo</title>
<path fill="none" stroke="#9e673f" d="M500.952,-266.994C515.596,-252.191 535.175,-232.399 550.099,-217.313"/>
<ellipse fill="none" stroke="#9e673f" cx="497.767" cy="-270.214" rx="4.00002" ry="4.00002"/>
<polygon fill="#9e673f" stroke="#9e673f" points="550.395,-217.014 560.627,-213.07 553.911,-213.46 557.427,-209.905 557.427,-209.905 557.427,-209.905 553.911,-213.46 554.228,-206.74 550.395,-217.014 550.395,-217.014"/>
</g>
<!-- Relationship -->
<g id="node3" class="node"><title>Relationship</title>
<ellipse fill="none" stroke="black" cx="69.1721" cy="-18" rx="55.3682" ry="18"/>
<text text-anchor="middle" x="69.1721" y="-14.3" font-family="Times,serif" font-size="14.00">Relationship</text>
</g>
<!-- User -->
<g id="node4" class="node"><title>User</title>
<ellipse fill="none" stroke="black" cx="242.172" cy="-106" rx="26.949" ry="18"/>
<text text-anchor="middle" x="242.172" y="-102.3" font-family="Times,serif" font-size="14.00">User</text>
</g>
<!-- User&#45;&gt;Place -->
<g id="edge3" class="edge"><title>User&#45;&gt;Place</title>
<path fill="none" stroke="#e05d7b" d="M277.293,-109.736C327.835,-114.224 417.994,-124.449 445.172,-142 483.57,-166.796 485.786,-226.128 483.372,-261.047"/>
<ellipse fill="none" stroke="#e05d7b" cx="273.224" cy="-109.385" rx="4" ry="4"/>
<polygon fill="#e05d7b" stroke="#e05d7b" points="483.37,-261.072 478.025,-270.647 482.939,-266.053 482.509,-271.035 482.509,-271.035 482.509,-271.035 482.939,-266.053 486.992,-271.422 483.37,-261.072 483.37,-261.072"/>
</g>
<!-- User&#45;&gt;Relationship -->
<g id="edge10" class="edge"><title>User&#45;&gt;Relationship</title>
<path fill="none" stroke="#c0edbc" d="M206.747,-105.197C146.938,-104.692 29.9187,-99.8097 4.17213,-70 -6.92561,-57.1509 6.13541,-45.2807 23.3871,-36.2312"/>
<ellipse fill="none" stroke="#c0edbc" cx="210.791" cy="-105.22" rx="4" ry="4"/>
<polygon fill="#c0edbc" stroke="#c0edbc" points="23.6706,-36.0951 34.6331,-35.8222 28.1777,-33.9305 32.6849,-31.7658 32.6849,-31.7658 32.6849,-31.7658 28.1777,-33.9305 30.7367,-27.7094 23.6706,-36.0951 23.6706,-36.0951"/>
<text text-anchor="middle" x="58.6721" y="-58.3" font-family="Times,serif" font-size="14.00">active_relationships</text>
</g>
<!-- User&#45;&gt;Relationship -->
<g id="edge12" class="edge"><title>User&#45;&gt;Relationship</title>
<path fill="none" stroke="#21cb89" d="M208.625,-97.9565C186.095,-92.3708 156.242,-83.2737 132.172,-70 122.505,-64.6688 121.715,-60.9925 113.172,-54 108.116,-49.8616 102.696,-45.4945 97.4477,-41.3012"/>
<ellipse fill="none" stroke="#21cb89" cx="212.68" cy="-98.9262" rx="4.00001" ry="4.00001"/>
<polygon fill="#21cb89" stroke="#21cb89" points="97.244,-41.1391 92.2209,-31.3913 93.3315,-38.0258 89.419,-34.9126 89.419,-34.9126 89.419,-34.9126 93.3315,-38.0258 86.617,-38.4338 97.244,-41.1391 97.244,-41.1391"/>
<text text-anchor="middle" x="190.172" y="-58.3" font-family="Times,serif" font-size="14.00">passive_relationships</text>
</g>
<!-- User&#45;&gt;User -->
<g id="edge8" class="edge"><title>User&#45;&gt;User</title>
<path fill="none" stroke="#af5923" d="M279.683,-108.37C284.21,-107.942 287.172,-107.152 287.172,-106 287.172,-104.848 284.21,-104.058 279.683,-103.63"/>
<polygon fill="#af5923" stroke="#af5923" points="279.406,-108.38 269.248,-104.25 274.41,-108.564 269.413,-108.747 269.413,-108.747 269.413,-108.747 274.41,-108.564 269.578,-113.244 279.406,-108.38 279.406,-108.38"/>
<polygon fill="#af5923" stroke="#af5923" points="279.406,-103.62 269.578,-98.7557 274.41,-103.436 269.413,-103.253 269.413,-103.253 269.413,-103.253 274.41,-103.436 269.248,-107.75 279.406,-103.62 279.406,-103.62"/>
<text text-anchor="middle" x="306.172" y="-102.3" font-family="Times,serif" font-size="14.00">friends</text>
</g>
<!-- User&#45;&gt;User -->
<g id="edge11" class="edge"><title>User&#45;&gt;User</title>
<path fill="none" stroke="#1fe999" d="M278.681,-111.205C301.654,-112.251 325.172,-110.517 325.172,-106 325.172,-101.483 301.654,-99.7486 278.681,-100.795"/>
<polygon fill="#1fe999" stroke="#1fe999" points="278.576,-111.198 268.885,-106.066 273.586,-110.877 268.596,-110.557 268.596,-110.557 268.596,-110.557 273.586,-110.877 268.308,-115.048 278.576,-111.198 278.576,-111.198"/>
<polygon fill="#1fe999" stroke="#1fe999" points="278.576,-100.802 268.308,-96.9522 273.586,-101.123 268.596,-101.443 268.596,-101.443 268.596,-101.443 273.586,-101.123 268.885,-105.934 278.576,-100.802 278.576,-100.802"/>
<text text-anchor="middle" x="351.672" y="-102.3" font-family="Times,serif" font-size="14.00">following</text>
</g>
<!-- User&#45;&gt;User -->
<g id="edge13" class="edge"><title>User&#45;&gt;User</title>
<path fill="none" stroke="#9aef6b" d="M278.085,-112.493C319.965,-116.203 378.172,-114.038 378.172,-106 378.172,-97.9616 319.965,-95.7974 278.085,-99.5073"/>
<polygon fill="#9aef6b" stroke="#9aef6b" points="278.047,-112.489 268.566,-106.979 273.074,-111.972 268.1,-111.455 268.1,-111.455 268.1,-111.455 273.074,-111.972 267.635,-115.931 278.047,-112.489 278.047,-112.489"/>
<polygon fill="#9aef6b" stroke="#9aef6b" points="278.047,-99.5112 267.635,-96.0689 273.074,-100.028 268.1,-100.545 268.1,-100.545 268.1,-100.545 273.074,-100.028 268.566,-105.021 278.047,-99.5112 278.047,-99.5112"/>
<text text-anchor="middle" x="404.172" y="-102.3" font-family="Times,serif" font-size="14.00">followers</text>
</g>
<!-- Like -->
<g id="node5" class="node"><title>Like</title>
<ellipse fill="none" stroke="black" cx="482.172" cy="-18" rx="27" ry="18"/>
<text text-anchor="middle" x="482.172" y="-14.3" font-family="Times,serif" font-size="14.00">Like</text>
</g>
<!-- User&#45;&gt;Like -->
<g id="edge5" class="edge"><title>User&#45;&gt;Like</title>
<path fill="none" stroke="#209291" d="M273.346,-93.8294C318.841,-77.5271 403.04,-47.3558 449.414,-30.7383"/>
<ellipse fill="none" stroke="#209291" cx="269.387" cy="-95.248" rx="4.00001" ry="4.00001"/>
<polygon fill="#209291" stroke="#209291" points="449.567,-30.6835 460.499,-31.5464 454.274,-28.9968 458.981,-27.3101 458.981,-27.3101 458.981,-27.3101 454.274,-28.9968 457.463,-23.0739 449.567,-30.6835 449.567,-30.6835"/>
</g>
<!-- Friendship -->
<g id="node6" class="node"><title>Friendship</title>
<ellipse fill="none" stroke="black" cx="366.172" cy="-18" rx="48.1437" ry="18"/>
<text text-anchor="middle" x="366.172" y="-14.3" font-family="Times,serif" font-size="14.00">Friendship</text>
</g>
<!-- User&#45;&gt;Friendship -->
<g id="edge7" class="edge"><title>User&#45;&gt;Friendship</title>
<path fill="none" stroke="#12598d" d="M266.863,-87.8759C286.753,-74.0812 314.799,-54.6297 336.016,-39.9146"/>
<ellipse fill="none" stroke="#12598d" cx="263.49" cy="-90.2152" rx="4.00002" ry="4.00002"/>
<polygon fill="#12598d" stroke="#12598d" points="336.141,-39.8283 346.922,-37.827 340.249,-36.9788 344.358,-34.1293 344.358,-34.1293 344.358,-34.1293 340.249,-36.9788 341.793,-30.4316 336.141,-39.8283 336.141,-39.8283"/>
</g>
<!-- User&#45;&gt;Micropost -->
<g id="edge6" class="edge"><title>User&#45;&gt;Micropost</title>
<path fill="none" stroke="#afb656" d="M278.124,-113.553C301.695,-118.879 332.583,-127.87 357.172,-142 369.645,-149.167 381.594,-159.645 391.15,-169.243"/>
<polygon fill="#afb656" stroke="#afb656" points="277.963,-113.518 269.127,-107.024 273.073,-112.471 268.184,-111.424 268.184,-111.424 268.184,-111.424 273.073,-112.471 267.242,-115.824 277.963,-113.518 277.963,-113.518"/>
<polygon fill="#afb656" stroke="#afb656" points="391.347,-169.449 395.015,-179.783 394.806,-173.059 398.264,-176.67 398.264,-176.67 398.264,-176.67 394.806,-173.059 401.514,-173.558 391.347,-169.449 391.347,-169.449"/>
<text text-anchor="middle" x="410.172" y="-146.3" font-family="Times,serif" font-size="14.00">liked_posts</text>
</g>
<!-- User&#45;&gt;Micropost -->
<g id="edge9" class="edge"><title>User&#45;&gt;Micropost</title>
<path fill="none" stroke="#e1be95" d="M263.062,-126.79C274.958,-137.217 290.567,-149.559 306.172,-158 324.017,-167.653 344.992,-175.264 363.555,-180.889"/>
<ellipse fill="none" stroke="#e1be95" cx="259.837" cy="-123.9" rx="4.00002" ry="4.00002"/>
<polygon fill="#e1be95" stroke="#e1be95" points="363.696,-180.93 372.037,-188.05 368.497,-182.33 373.297,-183.73 373.297,-183.73 373.297,-183.73 368.497,-182.33 374.556,-179.41 363.696,-180.93 363.696,-180.93"/>
</g>
<!-- Notify -->
<g id="node10" class="node"><title>Notify</title>
<ellipse fill="none" stroke="black" cx="266.172" cy="-18" rx="33.1991" ry="18"/>
<text text-anchor="middle" x="266.172" y="-14.3" font-family="Times,serif" font-size="14.00">Notify</text>
</g>
<!-- User&#45;&gt;Notify -->
<g id="edge4" class="edge"><title>User&#45;&gt;Notify</title>
<path fill="none" stroke="#3a59f5" d="M249.245,-80.3659C250.234,-76.8873 251.233,-73.3545 252.172,-70 254.376,-62.1311 256.74,-53.5695 258.886,-45.7478"/>
<ellipse fill="none" stroke="#3a59f5" cx="248.086" cy="-84.4288" rx="4.00001" ry="4.00001"/>
<polygon fill="#3a59f5" stroke="#3a59f5" points="258.91,-45.6577 265.89,-37.1999 260.23,-40.835 261.55,-36.0122 261.55,-36.0122 261.55,-36.0122 260.23,-40.835 257.209,-34.8246 258.91,-45.6577 258.91,-45.6577"/>
</g>
<!-- Micropost&#45;&gt;Place -->
<g id="edge14" class="edge"><title>Micropost&#45;&gt;Place</title>
<path fill="none" stroke="#3a8624" d="M434.175,-217.099C445.799,-231.395 459.428,-249.986 468.973,-264.544"/>
<ellipse fill="none" stroke="#3a8624" cx="431.552" cy="-213.939" rx="4.00002" ry="4.00002"/>
<ellipse fill="#3a8624" stroke="#3a8624" cx="471.179" cy="-268.001" rx="4.00002" ry="4.00002"/>
</g>
<!-- Micropost&#45;&gt;User -->
<g id="edge16" class="edge"><title>Micropost&#45;&gt;User</title>
<path fill="none" stroke="#91e220" d="M369.103,-177.313C355.679,-171.831 341.03,-165.222 328.172,-158 317.631,-152.079 316.386,-148.469 306.172,-142 295.332,-135.134 283.048,-128.22 272.16,-122.372"/>
<polygon fill="#91e220" stroke="#91e220" points="369.327,-177.402 376.956,-185.28 373.973,-179.251 378.619,-181.099 378.619,-181.099 378.619,-181.099 373.973,-179.251 380.283,-176.918 369.327,-177.402 369.327,-177.402"/>
<polygon fill="#91e220" stroke="#91e220" points="271.861,-122.214 265.128,-113.558 267.442,-119.875 263.023,-117.535 263.023,-117.535 263.023,-117.535 267.442,-119.875 260.918,-121.513 271.861,-122.214 271.861,-122.214"/>
<text text-anchor="middle" x="340.672" y="-146.3" font-family="Times,serif" font-size="14.00">liker</text>
</g>
<!-- Micropost&#45;&gt;Like -->
<g id="edge15" class="edge"><title>Micropost&#45;&gt;Like</title>
<path fill="none" stroke="#22429d" d="M438.413,-172.211C451.99,-159.807 467.327,-142.828 475.172,-124 485.511,-99.1856 486.277,-68.2086 485.06,-46.3508"/>
<ellipse fill="none" stroke="#22429d" cx="435.33" cy="-174.931" rx="4.00002" ry="4.00002"/>
<polygon fill="#22429d" stroke="#22429d" points="485.041,-46.1 488.797,-35.7973 484.675,-41.1134 484.309,-36.1268 484.309,-36.1268 484.309,-36.1268 484.675,-41.1134 479.821,-36.4563 485.041,-46.1 485.041,-46.1"/>
</g>
<!-- ApplicationRecord -->
<g id="node8" class="node"><title>ApplicationRecord</title>
<ellipse fill="none" stroke="black" cx="605.172" cy="-289" rx="77.0154" ry="18"/>
<text text-anchor="middle" x="605.172" y="-285.3" font-family="Times,serif" font-size="14.00">ApplicationRecord</text>
</g>
</g>
</svg>
